<svg width="148" height="30" viewBox="0 0 148 30" fill="none" xmlns="http://www.w3.org/2000/svg">
<path fill-rule="evenodd" clip-rule="evenodd" d="M146.023 2.21707C145.846 2.05699 145.622 1.97694 145.354 1.97694H144.165C144.183 2.23766 144.194 2.5121 144.199 2.80026C144.203 3.08842 144.206 3.35142 144.206 3.58927C144.206 3.83169 144.203 4.09927 144.199 4.392C144.194 4.68016 144.183 4.95689 144.165 5.22218H144.786L144.759 4.56353C144.75 4.34398 144.745 4.12671 144.745 3.91174H145.367C145.395 4.03066 145.431 4.16102 145.477 4.30281C145.513 4.42173 145.559 4.56124 145.613 4.72133C145.668 4.88142 145.729 5.04837 145.798 5.22218H146.488C146.383 5.03922 146.292 4.8677 146.215 4.70761C146.142 4.54295 146.08 4.39886 146.03 4.27537C145.98 4.15187 145.941 4.05124 145.914 3.97348C145.887 3.89115 145.871 3.83855 145.866 3.81568C145.998 3.73792 146.101 3.62357 146.174 3.47263C146.251 3.31712 146.29 3.13645 146.29 2.93062C146.29 2.61044 146.201 2.37259 146.023 2.21707ZM144.759 2.71793C144.764 2.63102 144.77 2.53268 144.78 2.4229H145.176C145.244 2.4229 145.308 2.42976 145.367 2.44349C145.426 2.45263 145.477 2.4755 145.518 2.5121C145.563 2.54411 145.597 2.59443 145.62 2.66304C145.643 2.73165 145.654 2.82084 145.654 2.93062C145.654 3.04039 145.641 3.12958 145.613 3.19819C145.59 3.2668 145.556 3.32169 145.511 3.36286C145.47 3.39945 145.42 3.42461 145.36 3.43833C145.301 3.45205 145.24 3.45891 145.176 3.45891H144.745V3.19819C144.745 3.11586 144.748 3.03582 144.752 2.95806C144.757 2.8803 144.759 2.80026 144.759 2.71793ZM147.773 4.73505C147.923 4.38743 147.998 4.01694 147.998 3.62357C147.998 3.22564 147.923 2.85515 147.773 2.5121C147.622 2.16447 147.417 1.86259 147.158 1.60645C146.903 1.34573 146.602 1.14219 146.256 0.995821C145.909 0.84488 145.54 0.769409 145.149 0.769409C144.757 0.769409 144.388 0.84488 144.042 0.995821C143.7 1.14219 143.399 1.34573 143.14 1.60645C142.884 1.86259 142.682 2.16447 142.531 2.5121C142.381 2.85515 142.306 3.22564 142.306 3.62357C142.306 4.01694 142.381 4.38743 142.531 4.73505C142.682 5.08267 142.884 5.38684 143.14 5.64756C143.399 5.9037 143.7 6.10725 144.042 6.25819C144.388 6.40913 144.757 6.4846 145.149 6.4846C145.54 6.4846 145.909 6.40913 146.256 6.25819C146.602 6.10725 146.903 5.9037 147.158 5.64756C147.417 5.38684 147.622 5.08267 147.773 4.73505ZM143.092 4.50178C142.978 4.22734 142.921 3.93461 142.921 3.62357C142.921 3.31254 142.978 3.01981 143.092 2.74537C143.21 2.47093 143.37 2.23308 143.57 2.03183C143.771 1.826 144.005 1.66591 144.274 1.55156C144.547 1.43264 144.839 1.37317 145.149 1.37317C145.463 1.37317 145.755 1.43264 146.023 1.55156C146.297 1.66591 146.534 1.826 146.734 2.03183C146.934 2.23308 147.092 2.47093 147.205 2.74537C147.324 3.01981 147.383 3.31254 147.383 3.62357C147.383 3.93461 147.324 4.22734 147.205 4.50178C147.092 4.77164 146.934 5.00949 146.734 5.21532C146.534 5.41658 146.297 5.57666 146.023 5.69559C145.755 5.80994 145.463 5.86711 145.149 5.86711C144.839 5.86711 144.547 5.80994 144.274 5.69559C144.005 5.57666 143.771 5.41658 143.57 5.21532C143.37 5.00949 143.21 4.77164 143.092 4.50178ZM99.5727 29.2293C90.8951 29.2293 85.2004 24.7177 85.2004 17.7535C85.2004 10.8498 90.8951 6.36851 99.5727 6.36851C107.587 6.36851 113.222 10.0928 113.794 15.6642H106.262C105.9 13.7869 103.309 12.3335 99.5727 12.3335C95.3243 12.3335 92.5824 14.5136 92.5824 17.7535C92.5824 21.0236 95.3243 23.234 99.5727 23.234C103.309 23.234 105.9 21.7806 106.262 19.873H113.794C113.222 25.5049 107.587 29.2293 99.5727 29.2293ZM0 28.6237L11.0881 6.88326H20.1273L31.1853 28.6237H23.6225L21.7242 24.5966H9.46103L7.53267 28.6237H0ZM11.8715 19.4794H19.2836L15.5776 11.6976L11.8715 19.4794ZM32.9778 28.6237V6.88326H49.9112C55.3046 6.88326 58.5889 9.91117 58.5889 15.0586C58.5889 20.1758 55.3046 23.234 49.9112 23.234H40.0585V28.6237H32.9778ZM40.0585 17.269H48.2239C50.2427 17.269 51.2069 16.8451 51.2069 15.0586C51.2069 13.2722 50.2427 12.8785 48.2239 12.8785H40.0585V17.269ZM60.9758 6.88326V28.6237H83.0917V23.2643H68.0565V20.1758H82.4891V15.3009H68.0565V12.2427H83.0917V6.88326H60.9758ZM115.582 21.4475C115.853 27.14 120.855 29.2293 129.562 29.2293C137.547 29.2293 142.308 27.4731 142.308 21.9926C142.308 16.3909 137.547 15.6037 130.165 15.0283L128.93 14.9375C124.079 14.6044 123.265 14.1805 123.265 13.0602C123.265 12.1215 124.199 11.516 128.026 11.516C132.093 11.516 134.052 12.1215 134.052 13.7869H141.404C141.133 8.97252 136.583 6.36851 128.086 6.36851C120.644 6.36851 115.913 8.60917 115.913 13.0602C115.913 17.7232 119.559 19.7822 127.845 20.2666L128.9 20.3272C134.142 20.6603 134.956 20.9328 134.956 22.2651C134.956 23.4157 134.052 24.0818 129.261 24.0818C124.561 24.0818 122.934 23.022 122.934 21.4475H115.582Z" fill="#C8AD80"/>
</svg>
