<svg width="40" height="40" viewBox="0 0 40 40" fill="none" xmlns="http://www.w3.org/2000/svg">
<path d="M0 20C0 8.95431 8.95431 0 20 0C31.0457 0 40 8.95431 40 20C40 31.0457 31.0457 40 20 40C8.95431 40 0 31.0457 0 20Z" fill="#F2F4F7"/>
<path d="M14.4881 26.16C11.9921 26.16 9.38406 24.368 9.38406 20.4C9.38406 16.432 11.9921 14.64 14.4881 14.64C17.0321 14.64 19.0801 16.16 19.3841 18.592C19.4001 18.72 19.3361 18.752 19.2241 18.752H17.9281C17.8321 18.752 17.7681 18.704 17.7361 18.592C17.2561 16.944 16.1201 16.192 14.4881 16.192C12.7601 16.192 11.1121 17.536 11.1121 20.4C11.1121 23.264 12.7601 24.608 14.4881 24.608C16.1201 24.608 17.2561 23.856 17.7361 22.208C17.7681 22.096 17.8321 22.048 17.9281 22.048H19.2081C19.3361 22.048 19.4001 22.096 19.3841 22.24C19.0481 24.656 17.0321 26.16 14.4881 26.16ZM22.8543 26H21.5103C21.3983 26 21.3503 25.952 21.3503 25.84V14.96C21.3503 14.848 21.3983 14.8 21.5103 14.8H22.9343C23.0463 14.8 23.1263 14.832 23.1903 14.928L28.3903 23.28V14.96C28.3903 14.848 28.4383 14.8 28.5503 14.8H29.8943C30.0063 14.8 30.0543 14.848 30.0543 14.96V25.84C30.0543 25.952 30.0063 26 29.8943 26H28.4703C28.3583 26 28.2783 25.968 28.2143 25.872L23.0143 17.504V25.84C23.0143 25.952 22.9663 26 22.8543 26Z" fill="#667085"/>
</svg>
