<svg width="20" height="20" viewBox="0 0 20 20" fill="none" xmlns="http://www.w3.org/2000/svg">
<path d="M11.6666 1.89258V5.3347C11.6666 5.80141 11.6666 6.03476 11.7574 6.21302C11.8373 6.36982 11.9648 6.49731 12.1216 6.5772C12.2999 6.66803 12.5332 6.66803 12.9999 6.66803H16.442M11.6666 14.168H6.66659M13.3333 10.8346H6.66659M16.6666 8.32482V14.3346C16.6666 15.7348 16.6666 16.4348 16.3941 16.9696C16.1544 17.44 15.772 17.8225 15.3016 18.0622C14.7668 18.3346 14.0667 18.3346 12.6666 18.3346H7.33325C5.93312 18.3346 5.23306 18.3346 4.69828 18.0622C4.22787 17.8225 3.84542 17.44 3.60574 16.9696C3.33325 16.4348 3.33325 15.7348 3.33325 14.3346V5.66797C3.33325 4.26784 3.33325 3.56777 3.60574 3.03299C3.84542 2.56259 4.22787 2.18014 4.69828 1.94045C5.23306 1.66797 5.93312 1.66797 7.33325 1.66797H10.0097C10.6212 1.66797 10.9269 1.66797 11.2147 1.73704C11.4698 1.79829 11.7136 1.8993 11.9373 2.03637C12.1896 2.19097 12.4058 2.40716 12.8382 2.83954L15.495 5.4964C15.9274 5.92878 16.1436 6.14497 16.2982 6.39726C16.4353 6.62094 16.5363 6.8648 16.5975 7.11989C16.6666 7.40761 16.6666 7.71335 16.6666 8.32482Z" stroke="#475467" stroke-width="1.66667" stroke-linecap="round" stroke-linejoin="round"/>
</svg>
