<svg width="24" height="25" viewBox="0 0 24 25" fill="none" xmlns="http://www.w3.org/2000/svg">
<path d="M8 15.4614V17.4614M12 11.4614V17.4614M16 7.46143V17.4614M7.8 21.4614H16.2C17.8802 21.4614 18.7202 21.4614 19.362 21.1344C19.9265 20.8468 20.3854 20.3879 20.673 19.8234C21 19.1817 21 18.3416 21 16.6614V8.26143C21 6.58127 21 5.74119 20.673 5.09945C20.3854 4.53497 19.9265 4.07603 19.362 3.78841C18.7202 3.46143 17.8802 3.46143 16.2 3.46143H7.8C6.11984 3.46143 5.27976 3.46143 4.63803 3.78841C4.07354 4.07603 3.6146 4.53497 3.32698 5.09945C3 5.74119 3 6.58127 3 8.26143V16.6614C3 18.3416 3 19.1817 3.32698 19.8234C3.6146 20.3879 4.07354 20.8468 4.63803 21.1344C5.27976 21.4614 6.11984 21.4614 7.8 21.4614Z" stroke="#667085" stroke-width="2" stroke-linecap="round" stroke-linejoin="round"/>
</svg>
