<svg width="24" height="25" viewBox="0 0 24 25" fill="none" xmlns="http://www.w3.org/2000/svg">
<path d="M20.5 7.73926L12 12.4615M12 12.4615L3.49997 7.73926M12 12.4615L12 21.9615M21 16.5201V8.40296C21 8.06031 21 7.88899 20.9495 7.73619C20.9049 7.60102 20.8318 7.47693 20.7354 7.37224C20.6263 7.25391 20.4766 7.17071 20.177 7.0043L12.777 2.89319C12.4934 2.73563 12.3516 2.65686 12.2015 2.62597C12.0685 2.59863 11.9315 2.59863 11.7986 2.62597C11.6484 2.65686 11.5066 2.73563 11.223 2.89319L3.82297 7.00431C3.52345 7.17071 3.37369 7.25391 3.26463 7.37225C3.16816 7.47694 3.09515 7.60102 3.05048 7.73619C3 7.88899 3 8.06031 3 8.40296V16.5201C3 16.8627 3 17.034 3.05048 17.1868C3.09515 17.322 3.16816 17.4461 3.26463 17.5508C3.37369 17.6691 3.52345 17.7523 3.82297 17.9187L11.223 22.0298C11.5066 22.1874 11.6484 22.2662 11.7986 22.297C11.9315 22.3244 12.0685 22.3244 12.2015 22.297C12.3516 22.2662 12.4934 22.1874 12.777 22.0298L20.177 17.9187C20.4766 17.7523 20.6263 17.6691 20.7354 17.5508C20.8318 17.4461 20.9049 17.322 20.9495 17.1868C21 17.034 21 16.8627 21 16.5201Z" stroke="#667085" stroke-width="2" stroke-linecap="round" stroke-linejoin="round"/>
</svg>
