<svg width="24" height="25" viewBox="0 0 24 25" fill="none" xmlns="http://www.w3.org/2000/svg">
<path d="M8 17.4614H16M11.0177 3.22542L4.23539 8.50055C3.78202 8.85317 3.55534 9.02948 3.39203 9.25028C3.24737 9.44587 3.1396 9.66621 3.07403 9.90048C3 10.1649 3 10.4521 3 11.0265V18.2614C3 19.3815 3 19.9416 3.21799 20.3694C3.40973 20.7457 3.71569 21.0517 4.09202 21.2434C4.51984 21.4614 5.07989 21.4614 6.2 21.4614H17.8C18.9201 21.4614 19.4802 21.4614 19.908 21.2434C20.2843 21.0517 20.5903 20.7457 20.782 20.3694C21 19.9416 21 19.3815 21 18.2614V11.0265C21 10.4521 21 10.1649 20.926 9.90048C20.8604 9.66621 20.7526 9.44587 20.608 9.25028C20.4447 9.02948 20.218 8.85317 19.7646 8.50055L12.9823 3.22542C12.631 2.95217 12.4553 2.81555 12.2613 2.76303C12.0902 2.71669 11.9098 2.71669 11.7387 2.76303C11.5447 2.81555 11.369 2.95217 11.0177 3.22542Z" stroke="#667085" stroke-width="2" stroke-linecap="round" stroke-linejoin="round"/>
</svg>
