<svg width="24" height="25" viewBox="0 0 24 25" fill="none" xmlns="http://www.w3.org/2000/svg">
<path d="M2 12.4615L11.6422 17.2826C11.7734 17.3482 11.839 17.381 11.9078 17.3939C11.9687 17.4053 12.0313 17.4053 12.0922 17.3939C12.161 17.381 12.2266 17.3482 12.3578 17.2826L22 12.4615M2 17.4615L11.6422 22.2826C11.7734 22.3482 11.839 22.381 11.9078 22.3939C11.9687 22.4053 12.0313 22.4053 12.0922 22.3939C12.161 22.381 12.2266 22.3482 12.3578 22.2826L22 17.4615M2 7.46149L11.6422 2.64038C11.7734 2.57479 11.839 2.54199 11.9078 2.52908C11.9687 2.51765 12.0313 2.51765 12.0922 2.52908C12.161 2.54199 12.2266 2.57479 12.3578 2.64038L22 7.46149L12.3578 12.2826C12.2266 12.3482 12.161 12.381 12.0922 12.3939C12.0313 12.4053 11.9687 12.4053 11.9078 12.3939C11.839 12.381 11.7734 12.3482 11.6422 12.2826L2 7.46149Z" stroke="#667085" stroke-width="2" stroke-linecap="round" stroke-linejoin="round"/>
</svg>
