<svg width="24" height="25" viewBox="0 0 24 25" fill="none" xmlns="http://www.w3.org/2000/svg">
<path d="M18 16.2983C19.4559 17.0297 20.7041 18.2034 21.6152 19.6711C21.7957 19.9617 21.8859 20.107 21.9171 20.3083C21.9804 20.7172 21.7008 21.22 21.3199 21.3818C21.1325 21.4614 20.9217 21.4614 20.5 21.4614M16 11.9937C17.4817 11.2573 18.5 9.72829 18.5 7.96143C18.5 6.19457 17.4817 4.66554 16 3.92919M14 7.96143C14 10.4467 11.9853 12.4614 9.49999 12.4614C7.01471 12.4614 4.99999 10.4467 4.99999 7.96143C4.99999 5.47614 7.01471 3.46143 9.49999 3.46143C11.9853 3.46143 14 5.47614 14 7.96143ZM2.55922 19.3998C4.15353 17.006 6.66936 15.4614 9.49999 15.4614C12.3306 15.4614 14.8465 17.006 16.4408 19.3998C16.79 19.9242 16.9647 20.1864 16.9446 20.5213C16.9289 20.7821 16.7579 21.1014 16.5496 21.259C16.2819 21.4614 15.9138 21.4614 15.1776 21.4614H3.82235C3.08616 21.4614 2.71807 21.4614 2.45043 21.259C2.24204 21.1014 2.07108 20.7821 2.05542 20.5213C2.03532 20.1864 2.20995 19.9242 2.55922 19.3998Z" stroke="#667085" stroke-width="2" stroke-linecap="round" stroke-linejoin="round"/>
</svg>
